<?xml version="1.0" encoding="UTF-8" standalone="no"?>
<svg width="120px" height="53px" viewBox="0 0 120 53" version="1.1" xmlns="http://www.w3.org/2000/svg" xmlns:xlink="http://www.w3.org/1999/xlink" xmlns:sketch="http://www.bohemiancoding.com/sketch/ns">
    <!-- Generator: Sketch 3.3.3 (12072) - http://www.bohemiancoding.com/sketch -->
    <title>download 3 copy</title>
    <desc>Created with Sketch.</desc>
    <defs></defs>
    <g id="Layouts" stroke="none" stroke-width="1" fill="none" fill-rule="evenodd" sketch:type="MSPage">
        <g id="Desktop" sketch:type="MSArtboardGroup" transform="translate(-576.000000, -52.000000)" fill="#FFFFFF">
            <g id="download-3-copy" sketch:type="MSLayerGroup" transform="translate(576.000000, 52.000000)">
                <path d="M117.536,6.28719192 C116.688,6.38297153 115.792,6.57453076 114.832,6.87783287 C114.528,6.97361249 114.256,7.16517172 114,7.42058402 C113.744,7.6919596 113.536,7.89948209 113.376,8.07507805 C113.216,8.25067401 113.056,8.55397612 112.88,9.00094766 C112.704,9.44791919 112.576,9.78314784 112.496,10.0385601 C112.416,10.2780092 112.288,10.740944 112.112,11.4114013 C111.92,12.0818586 111.792,12.5926832 111.68,12.9438751 C110.928,15.4820349 109.728,18.0521212 108.096,20.6860606 C106.464,23.32 105.04,24.6928411 103.824,24.8205473 C103.184,24.8844004 102.8,24.3576125 102.672,23.2082571 C102.432,21.0532158 102.88,18.3394601 103.968,15.0510266 C105.072,11.7625932 106.24,9.44791919 107.504,8.09104132 C107.68,7.86755556 107.776,7.6919596 107.76,7.54829017 C107.744,7.42058402 107.664,7.35673095 107.536,7.37269421 C105.744,7.56425344 104.352,7.93140863 103.36,8.49012305 C102.368,9.0328742 101.488,10.1183765 100.672,11.7466299 C100.048,13.0077282 99.52,14.5721286 99.056,16.4717576 C96.784,21.9152323 94.72,24.7407309 92.864,24.9322902 C92.256,24.9961433 91.904,24.5970615 91.808,23.7190817 C91.632,22.0429385 92.144,19.2653297 93.376,15.4022185 C94.608,11.5391074 95.728,9.09672727 96.752,8.07507805 L96.24,8.12296786 L93.696,8.34645363 C93.024,8.42626997 92.32,8.77746189 91.6,9.43195592 C90.88,10.08645 90.384,10.8207603 90.096,11.6348871 C89.68,10.5972746 88.96,9.87892746 87.968,9.495809 C86.96,9.11269054 85.92,8.96902112 84.848,9.09672727 C82.544,9.35213958 80.528,10.4216786 78.768,12.3372709 C77.024,14.2368999 75.76,16.4717576 74.992,18.9939541 C74.976,19.0418439 74.96,19.0897337 74.944,19.1376235 C74.832,19.3930358 74.688,19.6803747 74.56,19.9836768 C73.696,21.8673425 73.024,23.2082571 72.528,24.0064206 C71.616,25.4590781 70.512,26.8319192 69.2,28.0930174 C67.888,29.3541157 66.528,30.0724628 65.136,30.2161322 L64.736,30.264022 C66.784,28.539989 68.464,26.2572415 69.792,23.3838531 C71.12,20.5104646 71.648,17.8126722 71.376,15.2425859 C71.04,12.1457117 69.744,10.7249807 67.472,10.9644298 C65.072,11.2198421 62.512,13.6143324 59.824,18.1159743 C61.152,14.5721286 62.272,12.401124 63.184,11.6348871 L61.664,11.7945197 C59.664,12.0020422 58.304,12.5607567 57.584,13.4546997 C57.232,13.9335978 56.72,15.2585491 56.096,17.445517 C55.872,18.2277172 55.568,19.3770725 55.168,20.8776198 C53.968,23.6233021 52.544,25.0759596 50.896,25.2515556 C49.952,25.3473352 49.184,25.0759596 48.592,24.4214656 C49.104,22.5537631 49.28,20.82973 49.104,19.2014766 C48.64,14.955247 46.4,13.055618 42.368,13.4866263 C39.968,13.7420386 37.872,14.7796511 36.096,16.615427 C35.024,17.7168926 34.144,18.9141377 33.472,20.2071625 C33.472,20.1911993 33.488,20.175236 33.488,20.1592727 C31.856,23.2082571 29.04,28.5080624 25.504,31.5410836 C21.968,34.5741047 18.48,36.2821745 15.056,36.6493297 C9.568,37.2399706 6.496,34.5421781 5.856,28.5559522 C5.44,24.6928411 6.032,20.765877 7.648,16.8069862 C9.264,12.8321322 11.584,9.495809 14.608,6.79801653 C17.632,4.10022406 20.88,2.55178696 24.336,2.1686685 C26.944,1.88132966 28.352,2.72738292 28.56,4.67490174 C28.704,5.95196327 28.256,7.10131864 27.232,8.13893113 C26.208,9.16058035 25.04,9.7512213 23.728,9.89489073 C23.248,9.94278053 22.816,9.92681726 22.432,9.83103765 C22.08,10.4536051 21.936,11.0123196 22,11.5071809 C22.048,12.0180055 22.336,12.401124 22.848,12.6724995 C23.36,12.9438751 23.984,13.0396547 24.736,12.9598384 C26.32,12.7842424 27.808,12.1457117 29.184,11.0442461 C30.56,9.94278053 31.44,8.68168228 31.824,7.22902479 C32.016,6.46278788 32.08,5.77636731 32.016,5.16976309 C31.84,3.52554637 30.864,2.24848485 29.088,1.37050505 C27.312,0.492525253 24.864,0.221149679 21.76,0.556378329 C18.64,0.891606979 15.584,2.07288889 12.56,4.10022406 C9.536,6.12755923 7.104,8.55397612 5.264,11.395438 C3.408,14.2368999 2.032,17.2379945 1.104,20.414685 C0.176,23.5913756 -0.128,26.5765069 0.176,29.370079 C0.976,36.7451093 5.344,40.0016162 13.312,39.1395996 C16.736,38.7724444 20.016,37.7507952 23.152,36.0586887 C26.288,34.3825455 28.832,32.2913572 30.752,29.8330138 C31.056,29.433932 31.328,29.0508136 31.6,28.6836584 C31.616,28.9709972 31.632,29.2423728 31.664,29.5297117 C31.888,31.6368632 32.592,33.1374105 33.776,34.0473168 C34.96,34.9572231 36.384,35.3243783 38.08,35.1328191 C40.72,34.8454803 42.8,33.9196107 44.336,32.3711736 C45.872,30.8227365 47.104,28.7634747 48.064,26.2572415 C48.944,26.8159559 49.952,27.0234784 51.088,26.8957723 C52.064,26.7840294 53.056,26.289168 54.08,25.3792617 C53.584,27.4065969 53.024,29.7531974 52.384,32.4509899 C50.528,40.288955 49.232,44.9023398 48.48,46.2751809 L50.912,46.0197686 C51.584,45.9399522 52.144,45.7962828 52.56,45.5887603 C52.976,45.3652746 53.344,44.9502296 53.632,44.3276621 C53.92,43.7050946 54.304,42.36418 54.768,40.3049183 L56.656,31.1739284 C57.248,32.7862185 59.152,33.408786 62.416,33.0575941 C65.664,32.7064022 68.368,31.3814509 70.512,29.0667769 C71.84,27.6460459 73.056,25.9060496 74.192,23.8787144 C74.16,24.6928411 74.192,25.5069679 74.272,26.3210946 C74.608,29.4179688 75.904,30.8386997 78.176,30.5992507 C81.456,30.2480588 84.672,26.464764 87.792,19.2493664 C87.296,21.3405546 87.168,23.4317429 87.392,25.5229311 C87.696,28.3165032 88.752,29.609528 90.592,29.4179688 C92.944,29.1625565 95.504,26.4168742 98.272,21.1968852 C98.128,22.4420202 98.096,23.4796327 98.176,24.2937594 C98.304,25.6985271 98.688,26.7201763 99.312,27.3906336 C99.936,28.0610909 100.688,28.3324665 101.584,28.2366869 C102.48,28.1409073 103.248,27.949348 103.888,27.6779725 C104.528,27.4065969 105.376,26.704213 106.432,25.5867842 C107.488,24.4693554 108.704,22.8251387 110.096,20.6700973 L108.032,28.6517319 C106.704,33.7280514 104.656,36.4258439 101.92,36.7131827 C101.216,36.7929991 100.608,36.6652929 100.112,36.314101 C99.616,35.9788724 99.328,35.484011 99.264,34.8454803 C99.136,33.6322718 99.36,32.8979614 99.952,32.6265859 C99.744,32.3073205 99.424,32.0359449 98.992,31.8124591 C98.56,31.5889734 98.048,31.509157 97.456,31.5730101 C96.864,31.6368632 96.368,31.9880551 95.984,32.6265859 C95.584,33.2651166 95.44,33.9515372 95.52,34.7018108 C95.68,36.1225418 96.384,37.0803379 97.664,37.6071258 C98.944,38.1339137 100.416,38.3095096 102.112,38.1179504 C103.808,37.9423545 105.44,37.3357502 107.008,36.3460275 C108.576,35.3403416 109.84,34.0952066 110.816,32.5946593 C111.792,31.094112 112.56,29.1146667 113.152,26.6722865 C113.376,25.8581598 113.648,24.7247677 113.984,23.2401837 C114.32,21.7555996 114.544,20.82973 114.624,20.4466116 C114.72,20.0634931 114.976,18.9779908 115.408,17.1741414 C115.824,15.370292 116.368,13.3748834 117.024,11.155989 C117.84,8.52204959 118.736,6.8139798 119.712,6.06370615 L117.536,6.28719192 L117.536,6.28719192 Z M46.256,18.1479008 C45.408,18.2436804 44.768,18.5789091 44.336,19.16955 C43.904,19.760191 43.728,20.5104646 43.84,21.420371 C44,22.904955 44.704,24.0702736 45.968,24.9163269 C45.328,26.8638457 44.464,28.6676951 43.392,30.3278751 C42.32,31.9880551 41.056,32.8979614 39.6,33.0575941 C37.824,33.1533737 36.832,32.1796143 36.608,30.1682424 C36.384,28.1568705 36.752,25.8262332 37.712,23.2082571 C39.456,18.4512029 41.504,15.960933 43.84,15.7055207 C45.328,15.545888 46.24,16.3440514 46.56,18.1159743 L46.256,18.1479008 L46.256,18.1479008 Z M59.184,31.1579651 C58.208,31.269708 57.632,30.5194343 57.456,28.9390707 C57.28,27.3587071 57.84,25.2355923 59.136,22.5856896 C60.432,19.935787 61.712,17.9882681 62.976,16.7590964 C63.744,15.9928595 64.496,15.5778145 65.2,15.4979982 C65.408,15.4820349 65.552,15.4820349 65.664,15.4979982 C66.192,15.5778145 66.496,16.0407493 66.592,16.8868026 C66.8,18.8343214 66.064,21.65982 64.368,25.3473352 C62.672,29.0348503 60.944,30.9664059 59.184,31.1579651 L59.184,31.1579651 Z M86.128,19.935787 C85.344,21.5161506 84.416,22.9209183 83.344,24.1341267 C82.272,25.3473352 81.296,26.0177925 80.416,26.1135721 C79.6,26.1933884 79.136,25.7304536 79.024,24.6768779 C78.768,22.250461 79.52,19.3930358 81.28,16.0886391 C83.04,12.7842424 85.04,11.0123196 87.28,10.7728705 C88.528,10.6451644 89.392,11.0921359 89.84,12.1297484 C89.104,13.8058916 87.872,16.4079045 86.128,19.935787 L86.128,19.935787 Z" id="Shape" sketch:type="MSShapeGroup"></path>
                <g id="Group" transform="translate(14.240000, 37.926391)" sketch:type="MSShapeGroup">
                    <path d="M33.952,-0.0319265381 C22.416,1.93155556 11.344,4.70916437 3.536,7.90181818 C0.272,9.22676951 -0.544,11.8926354 0.48,14.3988687 C13.744,8.36475298 20.32,6.6566832 30.016,4.26219284 C31.728,3.83118457 33.104,2.55412305 33.664,0.877979798 C33.76,0.558714417 33.856,0.255412305 33.952,-0.0319265381 L33.952,-0.0319265381 Z" id="Shape"></path>
                </g>
                <path d="M91.36,36.5854766 C91.696,35.1487824 91.312,35.0849293 89.84,34.8774068 C81.792,33.7120882 72.944,33.7919045 62.288,36.074652 C60.496,36.4577704 59.024,37.7029054 58.736,39.5227181 C58.736,39.5227181 72.112,35.1328191 91.36,36.5854766 L91.36,36.5854766 L91.36,36.5854766 Z" id="Shape" sketch:type="MSShapeGroup"></path>
            </g>
        </g>
    </g>
</svg>